<svg xmlns="http://www.w3.org/2000/svg" viewBox="0 0 360 300" fill="none">
  <g stroke="#16ff48" stroke-linecap="round" stroke-linejoin="round">
    <rect x="74" y="58" width="212" height="144" rx="10" stroke-width="5"/>
    <path d="M104 92h86M104 120h124M104 148h70" stroke-width="4" opacity=".7"/>
    <path d="M232 102h26v26h-26zM232 144h26v26h-26z" stroke-width="4"/>
    <path d="M142 202h76l12 38H130l12-38Z" stroke-width="5"/>
    <path d="M104 242h152" stroke-width="5"/>
    <circle cx="94" cy="222" r="21" stroke-width="5"/>
    <path d="M88 222h12M94 216v12" stroke-width="4"/>
    <circle cx="266" cy="222" r="21" stroke-width="5"/>
    <path d="M260 222h12M266 216v12" stroke-width="4"/>
  </g>
  <g stroke="#16ff48" opacity=".25">
    <path d="M48 42h264M48 260h264" stroke-width="2"/>
    <path d="M52 74v152M308 74v152" stroke-width="2"/>
  </g>
</svg>
