<svg xmlns="http://www.w3.org/2000/svg" viewBox="0 0 360 300" fill="none">
  <g stroke="#16ff48" stroke-linecap="round" stroke-linejoin="round">
    <circle cx="178" cy="76" r="34" stroke-width="5"/>
    <path d="M150 58c14-24 44-24 58-4M163 76h2M191 76h2" stroke-width="5"/>
    <path d="M164 92c10 9 26 9 36 0" stroke-width="4"/>
    <path d="M180 110v72" stroke-width="6"/>
    <path d="M180 130l-54 30M180 132l54-16" stroke-width="6"/>
    <path d="M180 182l-50 58M180 182l58 48" stroke-width="7"/>
    <path d="M110 242h44M218 234h52" stroke-width="6"/>
    <path d="M80 258h210" stroke-width="4" opacity=".55"/>
  </g>
  <g stroke="#16ff48" opacity=".24">
    <path d="M44 54h48M268 54h48M44 246h48M268 246h48" stroke-width="3"/>
    <path d="M62 74v152M298 74v152" stroke-width="2"/>
  </g>
</svg>
